<?xml version="1.0" encoding="UTF-8"?>
<svg width="176px" height="122px" viewBox="0 0 176 122" version="1.1" xmlns="http://www.w3.org/2000/svg" xmlns:xlink="http://www.w3.org/1999/xlink">
    <!-- Generator: Sketch 51.3 (57544) - http://www.bohemiancoding.com/sketch -->
    <title>Page 1</title>
    <desc>Created with Sketch.</desc>
    <defs>
        <polygon id="path-1" points="0.698382979 0.684407143 70.6652482 0.684407143 70.6652482 7.53061224 0.698382979 7.53061224"></polygon>
        <polygon id="path-3" points="0 121.744898 175.530667 121.744898 175.530667 0.456857143 0 0.456857143"></polygon>
    </defs>
    <g id="Login-Alt-Flows" stroke="none" stroke-width="1" fill="none" fill-rule="evenodd">
        <g id="DESKTOP_UPDATE_USERNAME_ERROR_500---english-Copy" transform="translate(-636.000000, -649.000000)">
            <g id="ServiceUnavailable" transform="translate(636.000000, 648.000000)">
                <g id="Page-1">
                    <g id="Group-5" transform="translate(0.000000, 117.522986)" stroke="#DE4247" stroke-linecap="round" stroke-linejoin="round" stroke-width="1.25">
                        <path d="M116.557186,1.17527755 L174.905555,1.17527755" id="Stroke-1"></path>
                        <path d="M25.6340879,1.17527755 L0.624612766,1.17527755" id="Stroke-3"></path>
                    </g>
                    <path d="M74.8743943,24.096202 L84.8976567,24.096202" id="Stroke-6" stroke="#DEE4E9" stroke-width="1.25" stroke-linecap="round"></path>
                    <g id="Group-61" transform="translate(0.000000, 0.798496)">
                        <path d="M82.0736681,19.8804398 L72.0516539,19.8804398 C72.0516539,19.8804398 69.973356,19.6720929 69.973356,18.2500622 C69.973356,16.8267765 70.8783206,16.6184296 70.8783206,16.6184296" id="Stroke-7" stroke="#DEE4E9" stroke-width="1.25" stroke-linecap="round"></path>
                        <path d="M22.6475801,45.9752663 L32.6708426,45.9752663" id="Stroke-9" stroke="#DEE4E9" stroke-width="1.25" stroke-linecap="round"></path>
                        <g id="Group-13" transform="translate(33.702128, 114.214286)">
                            <mask id="mask-2" fill="white">
                                <use xlink:href="#path-1"></use>
                            </mask>
                            <g id="Clip-12"></g>
                            <path d="M70.6652482,4.10832551 C70.6652482,5.99850918 55.0024965,7.53098878 35.6824397,7.53098878 C16.3611348,7.53098878 0.698382979,5.99850918 0.698382979,4.10832551 C0.698382979,2.21814184 16.3611348,0.684407143 35.6824397,0.684407143 C55.0024965,0.684407143 70.6652482,2.21814184 70.6652482,4.10832551" id="Fill-11" fill="#CCD5DC" mask="url(#mask-2)"></path>
                        </g>
                        <path d="M29.8468539,42.557498 L19.8248397,42.557498 C19.8248397,42.557498 17.7477901,42.349151 17.7477901,40.9271204 C17.7477901,39.5038347 18.6527546,39.2954878 18.6527546,39.2954878" id="Stroke-14" stroke="#DEE4E9" stroke-width="1.25" stroke-linecap="round"></path>
                        <polygon id="Fill-16" fill="#FEFEFE" points="57.2152284 117.941437 53.3394837 117.941437 42.6097248 59.0018449 46.9111149 59.0018449"></polygon>
                        <polygon id="Stroke-18" stroke="#D2D5DA" stroke-width="1.25" stroke-linecap="round" stroke-linejoin="round" points="57.2152284 117.941437 53.3394837 117.941437 42.6097248 59.0018449 46.9111149 59.0018449"></polygon>
                        <g id="Group-23" transform="translate(39.943262, 84.091837)">
                            <polyline id="Fill-20" fill="#FEFEFE" points="48.7347745 0.469282653 50.382434 0.469282653 50.382434 16.7617622 0.132561702 16.7617622 0.132561702 0.469282653 1.70657589 0.469282653"></polyline>
                            <polyline id="Stroke-22" stroke="#A1AFB8" stroke-width="1.25" stroke-linecap="round" stroke-linejoin="round" points="48.7347745 0.469282653 50.382434 0.469282653 50.382434 16.7617622 0.132561702 16.7617622 0.132561702 0.469282653 1.70657589 0.469282653"></polyline>
                        </g>
                        <g id="Group-27" transform="translate(59.914894, 84.091837)">
                            <path d="M1.02666667,0.469282653 L28.7635177,0.469282653" id="Fill-24" fill="#FEFEFE"></path>
                            <path d="M1.02666667,0.469282653 L28.7635177,0.469282653" id="Stroke-26" stroke="#D9E1E6" stroke-width="1.25" stroke-linecap="round" stroke-linejoin="round"></path>
                        </g>
                        <g id="Group-31" transform="translate(41.191489, 84.091837)">
                            <path d="M0.458598582,0.469282653 L14.5211234,0.469282653" id="Fill-28" fill="#FEFEFE"></path>
                            <path d="M0.458598582,0.469282653 L14.5211234,0.469282653" id="Stroke-30" stroke="#A1AFB8" stroke-width="1.25" stroke-linecap="round" stroke-linejoin="round"></path>
                        </g>
                        <mask id="mask-4" fill="white">
                            <use xlink:href="#path-3"></use>
                        </mask>
                        <g id="Clip-33"></g>
                        <polygon id="Fill-32" fill="#D9E1E6" mask="url(#mask-4)" points="88.6852766 97.7548776 98.301617 97.7548776 98.301617 84.5612449 88.6852766 84.5612449"></polygon>
                        <polygon id="Fill-34" fill="#FEFEFE" mask="url(#mask-4)" points="42.5969929 78.7149796 94.847773 78.7149796 94.847773 62.4225 42.5969929 62.4225"></polygon>
                        <polygon id="Stroke-35" stroke="#A1AFB8" stroke-width="1.25" stroke-linecap="round" stroke-linejoin="round" mask="url(#mask-4)" points="42.5969929 78.7149796 94.847773 78.7149796 94.847773 62.4225 42.5969929 62.4225"></polygon>
                        <polygon id="Fill-36" fill="#AA81F7" mask="url(#mask-4)" points="85.0771518 61.8528092 95.258939 79.3451663 88.1290667 79.3451663 78.1707121 61.8528092"></polygon>
                        <polygon id="Fill-37" fill="#AA81F7" mask="url(#mask-4)" points="67.2534695 61.8528092 77.4352567 79.3451663 70.3053844 79.3451663 60.3470298 61.8528092"></polygon>
                        <polygon id="Fill-38" fill="#AA81F7" mask="url(#mask-4)" points="49.4296624 61.8528092 59.6114496 79.3451663 52.4815773 79.3451663 42.5232227 61.8528092"></polygon>
                        <polygon id="Fill-39" fill="#FEFEFE" mask="url(#mask-4)" points="105.828925 117.941437 101.95318 117.941437 91.2246695 59.0018449 95.5248113 59.0018449"></polygon>
                        <polygon id="Stroke-40" stroke="#D2D5DA" stroke-width="1.25" stroke-linecap="round" stroke-linejoin="round" mask="url(#mask-4)" points="105.828925 117.941437 101.95318 117.941437 91.2246695 59.0018449 95.5248113 59.0018449"></polygon>
                        <path d="M101.895387,80.7124745 C101.895387,80.7124745 102.931416,92.6823827 92.0443801,87.6029847" id="Stroke-41" stroke="#543E87" stroke-width="1.25" stroke-linecap="round" mask="url(#mask-4)"></path>
                        <g id="Group-44" mask="url(#mask-4)">
                            <g transform="translate(34.950355, 58.989796)">
                                <polyline id="Fill-42" stroke="none" fill="#FEFEFE" fill-rule="evenodd" points="6.88746667 6.08900204 7.65013333 0.0117979592 11.9515234 0.0117979592 4.12139574 58.9513898 0.244402837 58.9513898 5.98999149 13.223002"></polyline>
                                <polyline id="Stroke-43" stroke="#A1AFB8" stroke-width="1.25" fill="none" stroke-linecap="round" stroke-linejoin="round" points="6.88746667 6.08900204 7.65013333 0.0117979592 11.9515234 0.0117979592 4.12139574 58.9513898 0.244402837 58.9513898 5.98999149 13.223002"></polyline>
                            </g>
                        </g>
                        <polygon id="Fill-45" fill="#FEFEFE" mask="url(#mask-4)" points="90.3260709 117.941437 86.4503262 117.941437 90.958922 59.0018449 95.2590638 59.0018449"></polygon>
                        <polygon id="Stroke-46" stroke="#A1AFB8" stroke-width="1.25" stroke-linecap="round" stroke-linejoin="round" mask="url(#mask-4)" points="90.3260709 117.941437 86.4503262 117.941437 90.958922 59.0018449 95.2590638 59.0018449"></polygon>
                        <polygon id="Fill-47" fill="#A1AFB8" mask="url(#mask-4)" points="90.8539461 64.4095776 90.8539461 67.9288837 93.8197333 68.781098 94.0581447 66.7453224"></polygon>
                        <polygon id="Fill-48" fill="#EFF0F2" mask="url(#mask-4)" points="44.111217 85.2658592 42.1702241 100.098655 46.9010043 100.098655 55.7147348 85.2658592"></polygon>
                        <polygon id="Fill-49" fill="#543E87" mask="url(#mask-4)" points="106.054479 78.3370684 105.20194 77.1798643 98.1694298 71.3938439 97.7350468 73.8500786 101.318706 76.5774153 101.311217 79.377548 104.502933 80.0113745"></polygon>
                        <g id="Group-52" mask="url(#mask-4)">
                            <g transform="translate(81.134752, 50.204082)">
                                <path d="M9.08771631,3.96248265 L9.02904965,4.00390102 L6.52510638,7.23704388 L3.2422695,5.8338398 C3.2422695,5.8338398 1.68947518,5.11215612 0.880624113,6.07481939 C0.0692765957,7.03748265 1.14899291,8.48085 1.14899291,8.48085 L10.2510638,14.3195847 L24.0701844,25.4887378 L26.284539,28.0391051 L28.6561702,26.8530337 L28.1506383,24.7934112 C28.3915461,24.1570745 28.858383,23.5270133 29.3501844,22.8643194 C29.8145248,22.2392786 30.2950922,21.5916459 30.6545816,20.8561561 C33.8874894,14.2480439 30.8480567,6.06728878 23.8792057,2.61952347 C20.9308936,1.16235 17.4059007,0.871166327 14.1243121,1.67317653" id="Fill-50" stroke="none" fill="#FACF26" fill-rule="evenodd"></path>
                                <path d="M9.08771631,3.96248265 L9.02904965,4.00390102 L6.52510638,7.23704388 L3.2422695,5.8338398 C3.2422695,5.8338398 1.68947518,5.11215612 0.880624113,6.07481939 C0.0692765957,7.03748265 1.14899291,8.48085 1.14899291,8.48085 L10.2510638,14.3195847 L24.0701844,25.4887378 L26.284539,28.0391051 L28.6561702,26.8530337 L28.1506383,24.7934112 C28.3915461,24.1570745 28.858383,23.5270133 29.3501844,22.8643194 C29.8145248,22.2392786 30.2950922,21.5916459 30.6545816,20.8561561 C33.8874894,14.2480439 30.8480567,6.06728878 23.8792057,2.61952347 C20.9308936,1.16235 17.4059007,0.871166327 14.1243121,1.67317653" id="Stroke-51" stroke="#8D53A1" stroke-width="1.25" fill="none" stroke-linecap="round" stroke-linejoin="round"></path>
                            </g>
                        </g>
                        <path d="M91.4622071,56.7932418 C91.4622071,56.7932418 94.8299234,53.3028031 97.7345475,53.3028031 C100.639172,53.3028031 103.148108,55.3335582 103.148108,55.3335582 L91.4622071,56.7932418 Z" id="Fill-53" fill="#FEFEFE" mask="url(#mask-4)"></path>
                        <path d="M110.71099,66.5483969 L101.896011,69.6208867 C101.896011,69.6208867 106.636777,71.7194173 107.485572,73.7853153 C110.031955,71.3930908 110.71099,66.5483969 110.71099,66.5483969" id="Fill-54" fill="#E8B035" mask="url(#mask-4)"></path>
                        <g id="Group-57" mask="url(#mask-4)">
                            <g transform="translate(113.588652, 0.000000)">
                                <polyline id="Fill-55" stroke="none" fill="#FEFEFE" fill-rule="evenodd" points="3.74255887 8.82537551 0.237537589 12.3484469 0.237537589 28.2794571 11.4416227 39.5427429 27.2828709 39.5427429 38.486956 28.2794571 38.486956 12.3484469 27.2828709 1.08390612 11.4416227 1.08390612 8.62437447 3.91541633"></polyline>
                                <polyline id="Stroke-56" stroke="#D9E1E6" stroke-width="1.25" fill="none" stroke-linecap="round" points="3.74255887 8.82537551 0.237537589 12.3484469 0.237537589 28.2794571 11.4416227 39.5427429 27.2828709 39.5427429 38.486956 28.2794571 38.486956 12.3484469 27.2828709 1.08390612 11.4416227 1.08390612 8.62437447 3.91541633"></polyline>
                            </g>
                        </g>
                        <path d="M132.951149,39.6716418 L132.951149,116.64454" id="Stroke-58" stroke="#D9E1E6" stroke-width="1.875" mask="url(#mask-4)"></path>
                        <polygon id="Fill-59" fill="#EFF0F2" mask="url(#mask-4)" points="139.421458 4.60722857 126.481089 4.60722857 117.331586 13.8083816 117.331586 26.8187694 126.481089 36.0199224 139.421458 36.0199224 148.570962 26.8187694 148.570962 13.8083816"></polygon>
                        <path d="M125.912772,21.1355418 L140.824091,21.1355418" id="Stroke-60" stroke="#FEFEFE" stroke-width="6.25" mask="url(#mask-4)"></path>
                    </g>
                </g>
            </g>
        </g>
    </g>
</svg>